<svg width="59" height="56" viewBox="0 0 59 56" fill="none" xmlns="http://www.w3.org/2000/svg">
<path d="M48.2048 40.5746C52.2286 31.8888 52.7796 26.0353 49.936 22.1531C49.3371 21.3385 48.6231 20.6152 47.8163 20.0059C46.7537 19.1956 45.6308 18.7487 44.4427 18.2766C43.0107 17.7079 41.3839 17.0619 39.4299 15.5718C37.476 14.0818 36.4212 12.6841 35.4916 11.4518C34.7217 10.4295 33.9945 9.46551 32.935 8.65753C32.1059 8.02069 31.1922 7.50219 30.2204 7.11692C25.747 5.41192 20.2507 7.49169 12.9133 13.6542C5.01884 20.2867 2.0497 26.0111 4.54229 29.7653C4.88169 30.2829 5.30574 30.7397 5.79669 31.1166C8.11647 32.8857 11.4502 32.372 13.9276 31.7594C16.7292 31.0642 19.103 31.4379 24.3053 35.4051C28.9518 38.9485 30.3942 41.045 30.4777 44.3803C30.5299 46.4771 30.8226 48.1394 31.3702 49.4628C32.0988 51.2222 33.2783 52.3889 34.8814 52.9213C37.4034 53.7646 39.9271 52.8342 42.3842 50.1554C44.2668 48.0999 46.171 44.9663 48.2048 40.5746ZM27.1983 23.8957L24.7181 22.0043L22.8267 24.4845C22.5759 24.8134 22.2047 25.0292 21.7948 25.0844C21.3849 25.1397 20.9698 25.0298 20.6409 24.779C20.312 24.5281 20.0962 24.1569 20.041 23.747C19.9858 23.3371 20.0957 22.922 20.3465 22.5931L22.2379 20.1129L19.7577 18.2215C19.4288 17.9707 19.213 17.5995 19.1578 17.1896C19.1026 16.7797 19.2125 16.3646 19.4633 16.0357C19.7141 15.7068 20.0853 15.491 20.4952 15.4358C20.9051 15.3806 21.3202 15.4905 21.6491 15.7413L24.1293 17.6327L26.0207 15.1525C26.2715 14.8236 26.6427 14.6078 27.0526 14.5526C27.4625 14.4974 27.8776 14.6073 28.2065 14.8581C28.5354 15.1089 28.7512 15.4801 28.8064 15.89C28.8616 16.2999 28.7517 16.715 28.5009 17.0439L26.6095 19.5241L29.0897 21.4155C29.4186 21.6663 29.6344 22.0375 29.6896 22.4474C29.7448 22.8573 29.635 23.2724 29.3841 23.6013C29.1333 23.9302 28.7621 24.146 28.3522 24.2012C27.9423 24.2564 27.5272 24.1465 27.1983 23.8957ZM33.4725 29.1707C33.1659 28.9369 32.9355 28.6174 32.8105 28.2527C32.6855 27.8879 32.6714 27.4943 32.7701 27.1216C32.8688 26.7489 33.0758 26.4138 33.3649 26.1587C33.654 25.9036 34.0123 25.74 34.3944 25.6885C34.7765 25.6371 35.1653 25.7001 35.5116 25.8696C35.8579 26.039 36.1462 26.3074 36.34 26.6408C36.5337 26.9741 36.6243 27.3574 36.6003 27.7422C36.5762 28.127 36.4386 28.4961 36.2047 28.8026C35.8912 29.2138 35.4272 29.4835 34.9148 29.5525C34.4024 29.6215 33.8836 29.4842 33.4725 29.1707ZM34.2821 35.1816C33.9754 34.9477 33.7449 34.628 33.6199 34.2631C33.495 33.8981 33.4811 33.5043 33.58 33.1314C33.679 32.7585 33.8864 32.4234 34.1759 32.1685C34.4654 31.9135 34.8241 31.7502 35.2064 31.6992C35.5888 31.6482 35.9777 31.7117 36.324 31.8819C36.6702 32.052 36.9582 32.321 37.1514 32.6549C37.3447 32.9888 37.4345 33.3725 37.4096 33.7574C37.3847 34.1424 37.2461 34.5113 37.0114 34.8175C36.6974 35.2272 36.2337 35.4956 35.7221 35.5638C35.2104 35.6321 34.6926 35.4946 34.2821 35.1816ZM39.4835 28.361C39.1769 28.1272 38.9465 27.8078 38.8215 27.443C38.6964 27.0783 38.6824 26.6847 38.7811 26.312C38.8797 25.9392 39.0867 25.6042 39.3759 25.3491C39.665 25.094 40.0232 24.9304 40.4054 24.8789C40.7875 24.8274 41.1763 24.8904 41.5226 25.0599C41.8689 25.2294 42.1572 25.4978 42.3509 25.8311C42.5447 26.1645 42.6353 26.5478 42.6112 26.9326C42.5872 27.3174 42.4495 27.6864 42.2157 27.993C41.9022 28.4041 41.4382 28.6739 40.9258 28.7429C40.4134 28.8119 39.8946 28.6745 39.4835 28.361ZM40.2931 34.372C39.9865 34.1382 39.7561 33.8187 39.6311 33.454C39.5061 33.0893 39.492 32.6957 39.5907 32.3229C39.6894 31.9502 39.8964 31.6151 40.1855 31.36C40.4746 31.105 40.8329 30.9413 41.215 30.8899C41.5971 30.8384 41.9859 30.9014 42.3322 31.0709C42.6785 31.2404 42.9668 31.5088 43.1606 31.8421C43.3543 32.1754 43.4449 32.5587 43.4209 32.9436C43.3968 33.3284 43.2592 33.6974 43.0254 34.004C42.7118 34.4151 42.2478 34.6848 41.7354 34.7539C41.223 34.8229 40.7042 34.6855 40.2931 34.372Z" fill="#FF9C00"/>
</svg>
